<?xml version="1.0" standalone="no"?>
<!DOCTYPE svg PUBLIC "-//W3C//DTD SVG 20010904//EN"
 "http://www.w3.org/TR/2001/REC-SVG-20010904/DTD/svg10.dtd">
<svg version="1.0" xmlns="http://www.w3.org/2000/svg"
 width="260.000000pt" height="260.000000pt" viewBox="0 0 260.000000 260.000000"
 preserveAspectRatio="xMidYMid meet">
<metadata>
Created by potrace 1.14, written by Peter Selinger 2001-2017
</metadata>
<g transform="translate(0.000000,260.000000) scale(0.100000,-0.100000)"
fill="#000000" stroke="none">
<path d="M0 2150 l0 -450 1300 0 1300 0 0 450 0 450 -1300 0 -1300 0 0 -450z"/>
<path d="M0 840 l0 -840 1300 0 1300 0 0 840 0 840 -1300 0 -1300 0 0 -840z
m370 540 l0 -179 78 -3 77 -3 0 -65 0 -65 -135 0 -135 0 -3 248 -2 247 60 0
60 0 0 -180z m300 7 c0 -159 2 -175 19 -191 25 -23 59 -13 72 21 5 13 9 96 9
184 l0 159 56 0 56 0 -4 -197 c-3 -187 -4 -200 -26 -236 -34 -53 -71 -70 -148
-65 -54 3 -68 9 -94 33 -48 46 -60 105 -60 297 l0 168 60 0 60 0 0 -173z m506
154 c18 -11 42 -40 55 -68 21 -42 24 -62 24 -163 0 -104 -2 -119 -25 -159 -42
-74 -64 -85 -182 -85 l-103 -1 -3 248 -2 247 102 0 c84 0 109 -4 134 -19z
m225 -91 c7 -61 16 -105 19 -98 4 7 15 57 24 111 l18 97 53 0 c61 0 55 11 81
-130 9 -52 19 -90 21 -84 2 6 9 55 16 110 l12 99 58 3 c53 3 58 1 53 -15 -2
-10 -19 -112 -36 -228 -42 -284 -31 -255 -90 -255 -60 0 -61 2 -85 135 -10 55
-21 108 -24 118 -4 11 -16 -30 -30 -105 -13 -68 -26 -129 -29 -135 -5 -15 -98
-18 -106 -4 -6 10 -76 448 -76 475 0 13 11 16 54 16 l53 0 14 -110z m497 -137
l-3 -248 -55 0 -55 0 -3 248 -2 247 60 0 60 0 -2 -247z m182 168 l5 -74 44 77
43 76 74 0 c41 0 74 -2 74 -5 0 -3 -27 -46 -60 -95 l-60 -89 64 -150 c36 -83
60 -153 55 -156 -5 -4 -36 -5 -69 -4 l-59 2 -31 84 c-16 46 -30 88 -30 94 0
16 -15 10 -30 -13 -8 -13 -17 -54 -20 -93 l-5 -70 -55 0 -55 0 -3 248 -2 248
57 -3 58 -3 5 -74z m265 -461 c0 -13 -124 -15 -1049 -18 -628 -1 -1054 2
-1059 7 -5 5 -6 14 -3 20 5 8 307 10 1059 9 927 -3 1052 -5 1052 -18z m5 -45
c0 -13 -122 -15 -1057 -13 -834 2 -1057 6 -1061 16 -3 9 213 12 1057 12 938 0
1061 -2 1061 -15z"/>
<path d="M1060 1315 l0 -125 30 0 c41 0 50 23 50 124 0 73 -3 89 -20 106 -11
11 -29 20 -40 20 -19 0 -20 -7 -20 -125z"/>
</g>
</svg>
