<?xml version="1.0" standalone="no"?>
<!DOCTYPE svg PUBLIC "-//W3C//DTD SVG 20010904//EN"
 "http://www.w3.org/TR/2001/REC-SVG-20010904/DTD/svg10.dtd">
<svg version="1.0" xmlns="http://www.w3.org/2000/svg"
 width="800.000000pt" height="800.000000pt" viewBox="0 0 800.000000 800.000000"
 preserveAspectRatio="xMidYMid meet">
<metadata>
Created by potrace 1.14, written by Peter Selinger 2001-2017
</metadata>
<g transform="translate(0.000000,800.000000) scale(0.100000,-0.100000)"
fill="#000000" stroke="none">
<path d="M0 6615 l0 -1385 4000 0 4000 0 0 1385 0 1385 -4000 0 -4000 0 0
-1385z"/>
<path d="M0 2580 l0 -2580 4000 0 4000 0 0 2580 0 2580 -4000 0 -4000 0 0
-2580z m1130 1660 l0 -560 245 0 245 0 0 -200 0 -200 -425 0 -425 0 0 760 0
760 180 0 180 0 0 -560z m922 48 l3 -513 25 -49 c33 -65 65 -88 123 -88 59 0
99 24 129 76 l23 41 3 523 3 522 180 0 180 0 -4 -527 c-4 -593 -6 -611 -77
-760 -66 -139 -155 -218 -280 -247 -118 -28 -309 -12 -398 33 -126 64 -212
202 -248 399 -13 72 -16 166 -15 562 1 261 1 490 1 508 l0 32 175 0 174 0 3
-512z m1459 498 c192 -45 314 -228 354 -530 26 -199 16 -434 -25 -584 -43
-156 -139 -295 -236 -342 -92 -45 -134 -50 -426 -50 l-278 0 0 760 0 760 278
0 c195 0 294 -4 333 -14z m800 -338 c25 -191 47 -350 50 -352 2 -3 31 133 63
302 32 169 62 328 68 355 l10 47 163 0 c147 0 164 -2 169 -17 5 -18 65 -331
108 -563 12 -63 24 -118 28 -122 3 -5 25 142 49 325 23 182 45 342 48 355 5
22 7 22 170 22 l166 0 -6 -52 c-3 -29 -49 -334 -102 -678 -53 -344 -101 -662
-107 -707 l-12 -83 -173 0 c-95 0 -173 1 -173 3 0 12 -160 830 -163 833 -3 3
-48 -225 -136 -686 l-27 -145 -171 -3 -171 -2 -6 27 c-10 46 -226 1462 -226
1478 0 13 22 15 167 13 l168 -3 46 -347z m1529 -408 l0 -760 -180 0 -180 0 0
753 c0 415 3 757 7 760 3 4 84 7 180 7 l173 0 0 -760z m550 508 l0 -253 151
253 150 252 230 0 c126 0 229 -3 229 -6 0 -3 -86 -134 -190 -290 l-190 -284
56 -132 c193 -457 327 -775 331 -790 5 -17 -10 -18 -209 -18 l-213 0 -99 279
c-54 153 -101 284 -105 290 -5 7 -34 -28 -74 -89 l-67 -100 0 -190 0 -190
-180 0 -180 0 0 760 0 760 180 0 180 0 0 -252z m830 -1408 l0 -50 -3250 0
-3250 0 0 50 0 50 3250 0 3250 0 0 -50z m0 -130 l0 -50 -3250 0 -3250 0 0 50
0 50 3250 0 3250 0 0 -50z"/>
<path d="M3250 4040 l0 -393 74 6 c109 8 140 30 173 122 15 42 18 84 18 255 0
216 -6 259 -48 320 -31 48 -72 68 -150 76 l-67 7 0 -393z"/>
</g>
</svg>
